<svg xmlns="http://www.w3.org/2000/svg" version="1.1" xmlns:xlink="http://www.w3.org/1999/xlink" xmlns:svgjs="http://svgjs.dev/svgjs" viewBox="0 0 800 800"><symbol id="SvgjsSymbol1021"><polygon points="0,43.75 87.5,0 175,43.75 87.5,87.5"></polygon></symbol><symbol id="SvgjsSymbol1022"><polygon points="0,43.75 87.5,87.5 87.5,175 0,131.25"></polygon></symbol><symbol id="SvgjsSymbol1023"><polygon points="87.5,87.5 175,43.75 175,131.25 87.5,175"></polygon></symbol><g shape-rendering="crispEdges"><g><use xlink:href="#SvgjsSymbol1021" x="43.75" y="568.75" fill="hsl(286, 100%, 51%)"></use><use xlink:href="#SvgjsSymbol1022" x="43.75" y="568.75" fill="#fd59ff"></use><use xlink:href="#SvgjsSymbol1023" x="43.75" y="568.75" fill="#8e00cb"></use></g><g><use xlink:href="#SvgjsSymbol1021" x="218.75" y="568.75" fill="hsl(286, 100%, 51%)"></use><use xlink:href="#SvgjsSymbol1022" x="218.75" y="568.75" fill="#fd59ff"></use><use xlink:href="#SvgjsSymbol1023" x="218.75" y="568.75" fill="#8e00cb"></use></g><g><use xlink:href="#SvgjsSymbol1021" x="393.75" y="568.75" fill="hsl(286, 100%, 51%)"></use><use xlink:href="#SvgjsSymbol1022" x="393.75" y="568.75" fill="#fd59ff"></use><use xlink:href="#SvgjsSymbol1023" x="393.75" y="568.75" fill="#8e00cb"></use></g><g><use xlink:href="#SvgjsSymbol1021" x="568.75" y="568.75" fill="hsl(286, 100%, 51%)"></use><use xlink:href="#SvgjsSymbol1022" x="568.75" y="568.75" fill="#fd59ff"></use><use xlink:href="#SvgjsSymbol1023" x="568.75" y="568.75" fill="#8e00cb"></use></g><g><use xlink:href="#SvgjsSymbol1021" x="131.25" y="437.5" fill="hsl(286, 100%, 51%)"></use><use xlink:href="#SvgjsSymbol1022" x="131.25" y="437.5" fill="#fd59ff"></use><use xlink:href="#SvgjsSymbol1023" x="131.25" y="437.5" fill="#8e00cb"></use></g><g><use xlink:href="#SvgjsSymbol1021" x="306.25" y="437.5" fill="hsl(286, 100%, 51%)"></use><use xlink:href="#SvgjsSymbol1022" x="306.25" y="437.5" fill="#fd59ff"></use><use xlink:href="#SvgjsSymbol1023" x="306.25" y="437.5" fill="#8e00cb"></use></g><g><use xlink:href="#SvgjsSymbol1021" x="481.25" y="437.5" fill="hsl(286, 100%, 51%)"></use><use xlink:href="#SvgjsSymbol1022" x="481.25" y="437.5" fill="#fd59ff"></use><use xlink:href="#SvgjsSymbol1023" x="481.25" y="437.5" fill="#8e00cb"></use></g><g><use xlink:href="#SvgjsSymbol1021" x="218.75" y="306.25" fill="hsl(286, 100%, 51%)"></use><use xlink:href="#SvgjsSymbol1022" x="218.75" y="306.25" fill="#fd59ff"></use><use xlink:href="#SvgjsSymbol1023" x="218.75" y="306.25" fill="#8e00cb"></use></g><g><use xlink:href="#SvgjsSymbol1021" x="393.75" y="306.25" fill="hsl(286, 100%, 51%)"></use><use xlink:href="#SvgjsSymbol1022" x="393.75" y="306.25" fill="#fd59ff"></use><use xlink:href="#SvgjsSymbol1023" x="393.75" y="306.25" fill="#8e00cb"></use></g><g><use xlink:href="#SvgjsSymbol1021" x="306.25" y="175" fill="hsl(286, 100%, 51%)"></use><use xlink:href="#SvgjsSymbol1022" x="306.25" y="175" fill="#fd59ff"></use><use xlink:href="#SvgjsSymbol1023" x="306.25" y="175" fill="#8e00cb"></use></g></g><g></g></svg>