<svg class="border shadow-md dark:border-slate-700" viewBox="0 0 739.2 739.2" xmlns="http://www.w3.org/2000/svg" preserveAspectRatio="none" style="width: 739.2px; height: 739.2px;"><rect class="bg" id="bg" x="0" y="0" width="739.2" height="739.2" fill="#ffffff"/><path d="M 0 -184.8 L 0 -184.80&#10;                L 145.00 -92.40&#10;                L 369.6 -184.80 L 369.6 -184.80&#10;                L 492.80 -92.40&#10;                L 739.2 -184.80 L 739.2 -184.80&#10;                L 941.20 -4.80&#10;                L 1108.8000000000002 -184.80  V 739.20 H 0 V -184.80 Z" fill="#65C416"/><path d="M 0 0 L 0 0.00&#10;                L 123.20 158.00&#10;                L 369.6 0.00 L 369.6 0.00&#10;                L 542.60 141.00&#10;                L 739.2 0.00 L 739.2 0.00&#10;                L 862.40 92.40&#10;                L 1108.8000000000002 0.00  V 739.20 H 0 V 0.00 Z" fill="#83cf44"/><path d="M 0 184.8 L 0 184.80&#10;                L 123.20 277.20&#10;                L 369.6 184.80 L 369.6 184.80&#10;                L 492.80 277.20&#10;                L 739.2 184.80 L 739.2 184.80&#10;                L 923.20 358.80&#10;                L 1108.8000000000002 184.80  V 739.20 H 0 V 184.80 Z" fill="#a1da72"/><path d="M 0 369.6 L 0 369.60&#10;                L 138.00 462.00&#10;                L 369.6 369.60 L 369.6 369.60&#10;                L 554.60 552.60&#10;                L 739.2 369.60 L 739.2 369.60&#10;                L 862.40 462.00&#10;                L 1108.8000000000002 369.60  V 739.20 H 0 V 369.60 Z" fill="#bfe5a0"/><path d="M 0 554.4000000000001 L 0 554.40&#10;                L 151.00 646.80&#10;                L 369.6 554.40 L 369.6 554.40&#10;                L 492.80 646.80&#10;                L 739.2 554.40 L 739.2 554.40&#10;                L 885.20 658.40&#10;                L 1108.8000000000002 554.40  V 739.20 H 0 V 554.40 Z" fill="#ddf0ce"/></svg>