<svg xmlns="http://www.w3.org/2000/svg" version="1.1" xmlns:xlink="http://www.w3.org/1999/xlink" viewBox="0 0 700 700" style="overflow: hidden; display: block;" width="700" height="700"><defs></defs><g id="two-0" transform="matrix(1 0 0 1 0 0)" opacity="1"><path transform="matrix(1 0 0 1 350 350)" id="two-2" d="M 176.092108 51.705308 C 202.665024 86.112152 245.711629 117.455994 250.070411 160.710495 C 253.164934 191.419086 243.210741 236.923008 214.04552 247.021699 C 165.548451 263.814197 125.937967 152.385478 78.217995 171.273519 C 40.881727 186.051587 74.3193 264.373515 41.295557 287.216909 C 19.017327 302.627347 -14.579125 290.183815 -40.679816 282.93433 C -66.333972 275.808871 -99.952663 268.791151 -111.882242 244.987935 C -132.935229 202.980686 -59.577546 139.771738 -90.32646 104.242291 C -106.044032 86.081107 -147.050229 122.684658 -163.106369 104.822097 C -176.189293 90.267259 -145.79372 62.39213 -156.337843 45.904932 C -182.405623 5.144347 -263.22766 35.973764 -295.582608 0 C -316.50281 -23.260073 -333.725341 -67.175355 -315.587964 -92.664987 C -287.81937 -131.689991 -219.321928 -107.315497 -171.514212 -110.225492 C -146.485972 -111.748928 -111.744564 -91.121247 -95.530694 -110.248298 C -61.948064 -149.864795 -157.218968 -228.04314 -121.254797 -265.51097 C -101.777423 -285.802692 -59.838918 -270.978265 -36.668251 -255.033287 C -3.235848 -232.026658 -0.195833 -181.016076 21.055047 -146.441075 C 29.396725 -132.869238 33.042118 -108.917849 48.853541 -106.974336 C 124.344112 -97.695161 147.584319 -265.292394 223.258524 -257.654072 C 254.91129 -254.45914 265.047678 -208.152406 282.141671 -181.321443 C 299.208928 -154.532442 336.328234 -125.994427 326.371706 -95.83138 C 303.84686 -27.592932 144.974198 -70.455188 130.83485 -0.000001 C 126.373116 22.232443 162.231727 33.758764 176.092108 51.705308 Z " fill="hsl(70, 67%, 61%)" stroke="undefined" stroke-width="1" stroke-opacity="1" fill-opacity="1" visibility="visible" stroke-linecap="butt" stroke-linejoin="miter" stroke-miterlimit="4"></path></g></svg>